<?xml version="1.0" encoding="UTF-8" standalone="no"?>
<!-- Created with Inkscape (http://www.inkscape.org/) -->

<svg
   xmlns:dc="http://purl.org/dc/elements/1.1/"
   xmlns:cc="http://creativecommons.org/ns#"
   xmlns:rdf="http://www.w3.org/1999/02/22-rdf-syntax-ns#"
   xmlns:svg="http://www.w3.org/2000/svg"
   xmlns="http://www.w3.org/2000/svg"
   xmlns:sodipodi="http://sodipodi.sourceforge.net/DTD/sodipodi-0.dtd"
   xmlns:inkscape="http://www.inkscape.org/namespaces/inkscape"
   width="744.09448"
   height="1052.3622"
   id="svg2"
   version="1.1"
   inkscape:version="0.48.4 r9939"
   sodipodi:docname="1_title_portrait.svg">
  <defs
     id="defs4" />
  <sodipodi:namedview
     id="base"
     pagecolor="#ffffff"
     bordercolor="#666666"
     borderopacity="1.0"
     inkscape:pageopacity="0.0"
     inkscape:pageshadow="2"
     inkscape:zoom="1.4"
     inkscape:cx="329.48376"
     inkscape:cy="300.21719"
     inkscape:document-units="mm"
     inkscape:current-layer="layer3"
     showgrid="false"
     inkscape:window-width="1680"
     inkscape:window-height="1000"
     inkscape:window-x="0"
     inkscape:window-y="0"
     inkscape:window-maximized="1"
     showguides="false"
     inkscape:guide-bbox="true"
     units="mm"
     inkscape:snap-grids="false"
     inkscape:snap-bbox="true"
     inkscape:snap-bbox-midpoints="true"
     inkscape:snap-global="true"
     inkscape:snap-to-guides="true">
    <sodipodi:guide
       orientation="0,1"
       position="-35.433071,350.7874"
       id="guide3069" />
    <sodipodi:guide
       orientation="0,1"
       position="-35.433071,701.5748"
       id="guide3071" />
    <inkscape:grid
       units="mm"
       empspacing="10"
       visible="true"
       enabled="true"
       snapvisiblegridlinesonly="true"
       type="xygrid"
       id="grid3073" />
    <sodipodi:guide
       orientation="0,1"
       position="-35.433071,526.1811"
       id="guide3079" />
    <sodipodi:guide
       orientation="0,1"
       position="-35.433071,175.3937"
       id="guide3081" />
    <sodipodi:guide
       orientation="0,1"
       position="-35.433071,876.9685"
       id="guide3083" />
    <sodipodi:guide
       orientation="0,1"
       position="-35.433071,789.27165"
       id="guide3085" />
    <sodipodi:guide
       orientation="0,1"
       position="-35.433071,613.87795"
       id="guide3087" />
    <sodipodi:guide
       orientation="0,1"
       position="-35.433071,87.69685"
       id="guide3089" />
  </sodipodi:namedview>
  <metadata
     id="metadata7">
    <rdf:RDF>
      <cc:Work
         rdf:about="">
        <dc:format>image/svg+xml</dc:format>
        <dc:type
           rdf:resource="http://purl.org/dc/dcmitype/StillImage" />
        <dc:title />
      </cc:Work>
    </rdf:RDF>
  </metadata>
  <g
     inkscape:groupmode="layer"
     id="layer3"
     inkscape:label="Deckblatt"
     transform="translate(0,-2.5390623e-6)"
     style="display:inline">
    <g
       id="g3055"
       transform="translate(93.781433,248.90889)">
      <text
         sodipodi:linespacing="125%"
         id="text3047"
         y="434.14883"
         x="279.31418"
         style="font-size:16px;font-style:normal;font-variant:normal;font-weight:normal;font-stretch:normal;text-align:center;line-height:125%;letter-spacing:2.13999987px;word-spacing:0px;text-anchor:middle;fill:#000000;fill-opacity:1;stroke:none;font-family:EB Garamond 12 All SC;-inkscape-font-specification:EB Garamond 12 All SC"
         xml:space="preserve"><tspan
           y="434.14883"
           x="280.38419"
           id="tspan3049"
           sodipodi:role="line">johann Adolph</tspan></text>
      <text
         sodipodi:linespacing="125%"
         id="text3051"
         y="452.66589"
         x="277.94019"
         style="font-size:12px;font-style:normal;font-variant:normal;font-weight:normal;font-stretch:normal;text-align:center;line-height:125%;letter-spacing:5.19000053px;word-spacing:0px;text-anchor:middle;fill:#d40000;fill-opacity:1;stroke:none;font-family:EB Garamond;-inkscape-font-specification:EB Garamond"
         xml:space="preserve"><tspan
           style="font-size:20px;letter-spacing:5.19000053px;fill:#d40000"
           y="452.66589"
           x="280.53519"
           id="tspan3053"
           sodipodi:role="line">HASSE</tspan></text>
    </g>
    <text
       xml:space="preserve"
       style="font-size:12px;font-style:normal;font-variant:normal;font-weight:normal;font-stretch:normal;text-align:center;line-height:110.00000238%;letter-spacing:0px;word-spacing:0px;text-anchor:middle;fill:#000000;fill-opacity:1;stroke:none;font-family:EB Garamond;-inkscape-font-specification:EB Garamond"
       x="372.3208"
       y="412.09424"
       id="text3061"
       sodipodi:linespacing="110%"><tspan
         sodipodi:role="line"
         x="372.3208"
         y="412.09424"
         style="font-size:14px;font-style:normal;line-height:110.00000238%;-inkscape-font-specification:EB Garamond"
         id="tspan3036">Sanctus Petrus et Sancta Maria Magdalena</tspan><tspan
         sodipodi:role="line"
         x="372.3208"
         y="427.49423"
         style="font-size:14px;font-style:normal;line-height:110.00000238%;-inkscape-font-specification:EB Garamond"
         id="tspan3042" /><tspan
         sodipodi:role="line"
         x="372.3208"
         y="442.89423"
         style="font-size:14px;font-style:normal;line-height:110.00000238%;-inkscape-font-specification:EB Garamond"
         id="tspan3044">KamH 2</tspan></text>
    <text
       xml:space="preserve"
       style="font-size:14px;font-style:normal;font-variant:normal;font-weight:normal;font-stretch:normal;text-align:center;line-height:125%;letter-spacing:1.84000015px;word-spacing:0px;text-anchor:middle;fill:#000000;fill-opacity:1;stroke:none;font-family:EB Garamond 12 All SC;-inkscape-font-specification:EB Garamond 12 All SC"
       x="372.06738"
       y="967.76636"
       id="text3099"
       sodipodi:linespacing="125%"><tspan
         sodipodi:role="line"
         x="372.9874"
         y="967.76636"
         id="tspan3023">organo</tspan></text>
    <text
       sodipodi:linespacing="110%"
       id="text3021"
       y="876.96851"
       x="371.86884"
       style="font-size:12px;font-style:normal;font-variant:normal;font-weight:normal;font-stretch:normal;text-align:center;line-height:110.00000238%;letter-spacing:0px;word-spacing:0px;text-anchor:middle;fill:#000000;fill-opacity:1;stroke:none;font-family:EB Garamond;-inkscape-font-specification:EB Garamond"
       xml:space="preserve"><tspan
         style="font-size:14px;font-style:normal;line-height:110.00000238%;-inkscape-font-specification:EB Garamond"
         y="876.96851"
         x="371.86884"
         sodipodi:role="line"
         id="tspan3097">3 S, 2 A (soli), 2 vl, vla, b, org</tspan></text>
    <g
       transform="translate(283.47188,-82.245355)"
       style="font-size:72px;font-style:normal;font-variant:normal;font-weight:normal;font-stretch:normal;text-align:center;line-height:125%;letter-spacing:0px;word-spacing:0px;text-anchor:middle;fill:none;stroke:#808080;stroke-width:0.62362206;stroke-miterlimit:4;stroke-dasharray:none;font-family:EB Garamond;-inkscape-font-specification:EB Garamond"
       id="text3013">
      <path
         d="m -80.467699,342.88789 c 0,-7.91999 5.760008,-15.984 13.68,-15.984 9.359991,0 14.328,10.22401 14.328,19.584 0,8.56799 -3.744008,17.712 -12.312,17.712 -10.00799,0 -15.696,-11.30401 -15.696,-21.312 m 16.416,-19.296 c -14.255985,0 -24.48,8.20801 -24.48,21.816 0,13.10399 9.864013,22.104 22.752,22.104 12.311988,0 21.384,-10.87201 21.384,-23.184 0,-10.51199 -9.864009,-20.736 -19.656,-20.736"
         style="fill:none;stroke:#808080;stroke-width:0.62362206;stroke-miterlimit:4;stroke-dasharray:none"
         id="path3019"
         inkscape:connector-curvature="0" />
      <path
         d="m -10.635574,348.93589 c -0.935999,-1.368 -1.8,-2.952 -1.8,-3.6 0,-0.648 0.288001,-0.576 1.224,-1.296 3.383997,-2.448 5.6880004,-5.47201 5.6880004,-10.08 0,-7.27199 -8.0640074,-10.296 -15.3360004,-10.296 -6.407993,0 -9.360006,0.216 -15.696,0.72 -1.511998,0.072 -2.52,0.432 -2.52,1.296 0,0.648 0.504001,1.008 1.152,1.224 4.103996,1.152 5.904,1.224 5.904,5.328 l 0,25.992 c 0,2.664 -0.936002,4.104 -3.384,5.184 -1.583998,0.72 -3.96,1.08 -3.96,2.16 0,0.72 1.584001,1.152 2.376,1.224 0.504,0 4.824003,-0.432 7.92,-0.432 3.455997,0 8.208001,0.432 8.712,0.432 0.792,-0.072 2.304,-0.504 2.304,-1.224 0,-1.08 -2.376001,-1.44 -3.96,-2.16 -2.447997,-1.08 -3.384,-2.52 -3.384,-5.184 l 0,-8.64 c 0,-1.44 0.504002,-1.944 2.016,-1.944 3.023997,0 5.112001,0.936 5.976,2.376 3.743997,6.26399 7.128005,10.512 11.3760004,14.976 2.015998,2.16 5.61600352,3.384 9.144,3.384 2.5199975,0 5.04,-0.864 5.04,-2.16 0,-0.576 -0.4320008,-1.152 -1.224,-1.224 -1.5839984,-0.144 -3.2400009,-0.504 -4.104,-1.152 -5.3999946,-3.888 -9.9360035,-9.64801 -13.4640004,-14.904 m -11.808,-3.888 c -2.087998,0 -2.952,-0.576 -2.952,-1.872 l 0,-13.896 c 0,-1.368 1.584002,-2.448 3.6,-2.448 4.823996,0 9.072,3.384 9.072,8.208 0,3.74399 -1.584002,6.192 -4.392,8.568 -0.647999,0.72 -3.168002,1.44 -5.328,1.44"
         style="fill:none;stroke:#808080;stroke-width:0.62362206;stroke-miterlimit:4;stroke-dasharray:none"
         id="path3021"
         inkscape:connector-curvature="0" />
      <path
         d="m 23.160551,347.06389 5.04,-14.328 c 0.288,-0.72 0.576001,-0.936 0.792,-0.216 l 4.392,13.464 c 0.72,2.304 0.647999,2.592 -0.792,2.592 l -8.784,0 c -1.295998,0 -1.079999,-0.36 -0.648,-1.512 m 20.52,19.296 c 2.375998,0 4.968002,0.432 6.624,0.432 1.367999,0 2.088,-0.36 2.088,-1.152 0,-0.72 -0.648002,-1.44 -2.88,-2.232 -3.527996,-1.296 -4.320002,-3.24001 -6.408,-9.072 l -9.504,-26.856 c -1.007999,-2.808 -1.440001,-5.184 -2.664,-5.184 -0.431999,0 -1.728001,2.016 -3.096,2.16 -0.791999,0.072 -0.792001,1.008 -2.016,4.104 l -11.016,30.456 c -1.079999,2.952 -1.008002,3.312 -3.384,4.392 -1.583998,0.72 -3.9599996,1.08 -3.9599996,2.16 0,0.792 1.0080014,1.224 2.376,1.224 1.0799986,0 2.7360016,-0.432 4.5359996,-0.432 1.367999,0 4.536002,0.432 5.904,0.432 1.799999,0 2.52,-0.432 2.52,-1.224 0,-0.72 -0.792001,-1.512 -2.664,-2.016 -2.087998,-0.576 -2.015999,-1.728 -1.584,-3.024 l 2.736,-7.848 c 0.288,-0.72 0.792001,-0.792 1.152,-0.792 l 12.024,0 c 0.576,0 0.936001,0.216 1.152,0.864 l 2.088,6.84 c 0.36,1.224 0.503998,2.592 -2.088,3.816 -1.583998,0.72 -3.888,1.08 -3.888,2.16 0,0.792 1.368001,1.224 2.304,1.224 2.159998,0 4.896005,-0.432 9.648,-0.432"
         style="fill:none;stroke:#808080;stroke-width:0.62362206;stroke-miterlimit:4;stroke-dasharray:none"
         id="path3023"
         inkscape:connector-curvature="0" />
      <path
         d="m 71.864051,330.28789 0,27.936 c 0,2.664 -0.936002,4.104 -3.384,5.184 -1.583998,0.72 -3.96,1.08 -3.96,2.16 0,0.72 1.584001,1.152 2.376,1.224 0.504,0 4.752004,-0.432 8.136,-0.432 3.455997,0 8.208001,0.432 8.712,0.432 0.792,-0.072 2.304,-0.504 2.304,-1.224 0,-1.08 -2.376001,-1.44 -3.96,-2.16 -2.447997,-1.08 -3.384,-2.52 -3.384,-5.184 l 0,-27.936 c 0,-0.72 0.144001,-2.232 0.864,-2.232 l 11.16,0 c 1.007999,0 1.944001,0.936 2.592,2.016 0.792,1.368 1.872001,3.24 2.592,3.24 0.864,0 1.008,-0.576 1.008,-1.656 0,-0.792 -0.144,-3.24 -0.144,-4.968 0,-1.584 0.288,-2.448 0.288,-3.096 0,-0.576 -0.432,-1.296 -1.296,-1.296 -0.863999,0 -1.224,0.576 -2.088,1.08 -1.295998,0.72 -2.448002,1.224 -5.04,1.224 l -25.128,0 c -3.959996,0 -5.760001,-2.16 -6.84,-2.16 -0.719999,0 -1.224,0.864 -1.224,1.8 0,0.72 0.144,2.088 0.144,3.24 0,2.304 -0.36,2.88 -0.36,4.536 0,0.648 0.360001,1.656 1.296,1.656 1.007999,0 1.512001,-2.016 2.304,-3.456 0.72,-1.296 1.224002,-2.16 3.096,-2.16 l 8.784,0 c 0.72,0 1.152,0.792 1.152,2.232"
         style="fill:none;stroke:#808080;stroke-width:0.62362206;stroke-miterlimit:4;stroke-dasharray:none"
         id="path3025"
         inkscape:connector-curvature="0" />
      <path
         d="m 106.98543,342.88789 c 0,-7.91999 5.76,-15.984 13.68,-15.984 9.35999,0 14.328,10.22401 14.328,19.584 0,8.56799 -3.74401,17.712 -12.312,17.712 -10.00799,0 -15.696,-11.30401 -15.696,-21.312 m 16.416,-19.296 c -14.25599,0 -24.480004,8.20801 -24.480004,21.816 0,13.10399 9.864014,22.104 22.752004,22.104 12.31198,0 21.384,-10.87201 21.384,-23.184 0,-10.51199 -9.86401,-20.736 -19.656,-20.736"
         style="fill:none;stroke:#808080;stroke-width:0.62362206;stroke-miterlimit:4;stroke-dasharray:none"
         id="path3027"
         inkscape:connector-curvature="0" />
      <path
         d="m 176.81755,348.93589 c -0.936,-1.368 -1.8,-2.952 -1.8,-3.6 0,-0.648 0.288,-0.576 1.224,-1.296 3.384,-2.448 5.688,-5.47201 5.688,-10.08 0,-7.27199 -8.06401,-10.296 -15.336,-10.296 -6.40799,0 -9.36,0.216 -15.696,0.72 -1.512,0.072 -2.52,0.432 -2.52,1.296 0,0.648 0.504,1.008 1.152,1.224 4.104,1.152 5.904,1.224 5.904,5.328 l 0,25.992 c 0,2.664 -0.936,4.104 -3.384,5.184 -1.584,0.72 -3.96,1.08 -3.96,2.16 0,0.72 1.584,1.152 2.376,1.224 0.504,0 4.824,-0.432 7.92,-0.432 3.456,0 8.208,0.432 8.712,0.432 0.792,-0.072 2.304,-0.504 2.304,-1.224 0,-1.08 -2.376,-1.44 -3.96,-2.16 -2.448,-1.08 -3.384,-2.52 -3.384,-5.184 l 0,-8.64 c 0,-1.44 0.504,-1.944 2.016,-1.944 3.024,0 5.112,0.936 5.976,2.376 3.744,6.26399 7.12801,10.512 11.376,14.976 2.016,2.16 5.616,3.384 9.144,3.384 2.52,0 5.04,-0.864 5.04,-2.16 0,-0.576 -0.432,-1.152 -1.224,-1.224 -1.584,-0.144 -3.24,-0.504 -4.104,-1.152 -5.39999,-3.888 -9.936,-9.64801 -13.464,-14.904 m -11.808,-3.888 c -2.088,0 -2.952,-0.576 -2.952,-1.872 l 0,-13.896 c 0,-1.368 1.584,-2.448 3.6,-2.448 4.824,0 9.072,3.384 9.072,8.208 0,3.74399 -1.584,6.192 -4.392,8.568 -0.648,0.72 -3.168,1.44 -5.328,1.44"
         style="fill:none;stroke:#808080;stroke-width:0.62362206;stroke-miterlimit:4;stroke-dasharray:none"
         id="path3029"
         inkscape:connector-curvature="0" />
      <path
         d="m 213.63768,324.09589 c -2.448,0 -5.40001,0.36 -7.92,0.36 -2.592,0 -5.18401,-0.36 -7.992,-0.36 -1.08,0 -2.52,0.432 -2.52,1.296 0,0.648 0.504,1.008 1.152,1.224 4.10399,1.152 5.904,1.224 5.904,5.328 l 0,26.28 c 0,2.664 -0.93601,4.104 -3.384,5.184 -1.584,0.72 -3.96,1.08 -3.96,2.16 0,0.72 1.584,1.152 2.376,1.224 0.504,0 4.752,-0.432 8.136,-0.432 3.45599,0 8.208,0.432 8.712,0.432 0.792,-0.072 2.304,-0.504 2.304,-1.224 0,-1.08 -2.37601,-1.44 -3.96,-2.16 -2.448,-1.08 -3.384,-2.52 -3.384,-5.184 l 0,-26.28 c 0,-4.104 1.872,-4.176 5.976,-5.328 0.648,-0.216 1.08,-0.576 1.08,-1.224 0,-0.864 -1.44,-1.296 -2.52,-1.296"
         style="fill:none;stroke:#808080;stroke-width:0.62362206;stroke-miterlimit:4;stroke-dasharray:none"
         id="path3031"
         inkscape:connector-curvature="0" />
      <path
         d="m 229.61043,342.88789 c 0,-7.91999 5.76,-15.984 13.68,-15.984 9.35999,0 14.328,10.22401 14.328,19.584 0,8.56799 -3.74401,17.712 -12.312,17.712 -10.00799,0 -15.696,-11.30401 -15.696,-21.312 m 16.416,-19.296 c -14.25599,0 -24.48,8.20801 -24.48,21.816 0,13.10399 9.86401,22.104 22.752,22.104 12.31198,0 21.384,-10.87201 21.384,-23.184 0,-10.51199 -9.86401,-20.736 -19.656,-20.736"
         style="fill:none;stroke:#808080;stroke-width:0.62362206;stroke-miterlimit:4;stroke-dasharray:none"
         id="path3033"
         inkscape:connector-curvature="0" />
    </g>
  </g>
</svg>
